<svg width="105" height="31" viewBox="0 0 105 31" fill="none" xmlns="http://www.w3.org/2000/svg">
<path fill-rule="evenodd" clip-rule="evenodd" d="M12.2136 0.24031C12.2136 0.517206 12.6769 0.598927 12.8441 0.775601C12.9976 0.937811 13.1233 1.15409 13.1233 1.25622C13.1233 1.35835 13.1744 1.44186 13.237 1.44186C13.2995 1.44186 13.3507 1.71221 13.3507 2.04264C10.5104 9.13049 1.9719 25.9494 0.160474 29.6783C0.160474 29.962 0 30.0838 0 30.3034C0.160474 30.6395 0.440651 30.7597 5.78098 30.7597C9.08388 30.7597 10.8491 30.7179 10.8491 30.6395C10.8491 30.5734 10.7706 30.5194 10.6748 30.5194C10.5788 30.5194 10.323 30.3319 10.1062 30.1028C9.75136 29.7279 9.71201 29.6199 9.71201 29.0214C9.71201 28.6558 9.76318 28.3566 9.82572 28.3566C9.88826 28.3566 9.93943 28.2484 9.93943 28.1163C9.93943 27.9841 9.9906 27.876 10.0531 27.876C10.1157 27.876 10.1668 27.7678 10.1668 27.6357C10.1668 27.5035 10.218 27.3953 10.2806 27.3953C10.3431 27.3953 10.3943 27.2872 10.3943 27.155C10.3943 27.0229 10.4454 26.9147 10.508 26.9147C10.5705 26.9147 10.6217 26.8066 10.6217 26.6744C10.6217 26.5422 10.6729 26.4341 10.7354 26.4341C10.7979 26.4341 10.8491 26.326 10.8491 26.1938C10.8491 26.0616 10.9003 25.9535 10.9628 25.9535C11.0253 25.9535 11.0765 25.8453 11.0765 25.7132C11.0765 25.581 11.1277 25.4729 11.1902 25.4729C11.2528 25.4729 11.3039 25.3647 11.3039 25.2326C11.3039 25.1004 11.3551 24.9922 11.4176 24.9922C11.4802 24.9922 11.5314 24.9073 11.5314 24.8035C11.5314 24.5402 11.8954 24.164 11.9581 24.3625C12.0259 24.5774 13.2083 24.5591 13.4156 24.3399C13.505 24.2456 13.5781 24.0293 13.5781 23.8593C13.5781 23.6894 13.6293 23.5504 13.6918 23.5504C13.7544 23.5504 13.8055 23.3341 13.8055 23.0698C13.8055 22.8054 13.8567 22.5891 13.9192 22.5891C13.9825 22.5891 14.0329 22.2687 14.0329 21.8682C14.0329 21.4677 14.0834 21.1473 14.1467 21.1473C14.2092 21.1473 14.2604 20.931 14.2604 20.6667C14.2604 20.4023 14.3115 20.186 14.3741 20.186C14.4366 20.186 14.4878 19.9157 14.4878 19.5853C14.4878 19.0166 14.3586 18.8049 14.2129 19.1347C14.16 19.2548 14.1334 19.2548 14.0804 19.1347C14.0439 19.0521 13.8648 18.9845 13.6824 18.9845C13.2835 18.9845 13.2258 18.652 13.5781 18.3837C13.7032 18.2884 13.8055 18.1143 13.8055 17.9967C13.8055 17.8792 13.8567 17.7829 13.9192 17.7829C13.9818 17.7829 14.0329 17.6748 14.0329 17.5426C14.0329 17.4105 14.0841 17.3023 14.1467 17.3023C14.2092 17.3023 14.2604 17.1942 14.2604 17.062C14.2604 16.9298 14.3115 16.8217 14.3741 16.8217C14.4366 16.8217 14.4878 16.7136 14.4878 16.5814C14.4878 16.4492 14.539 16.3411 14.6015 16.3411C14.664 16.3411 14.7152 16.2329 14.7152 16.1008C14.7152 15.9686 14.7664 15.8605 14.8289 15.8605C14.8914 15.8605 14.9426 15.7642 14.9426 15.6467C14.9426 15.5291 15.045 15.355 15.17 15.2597C15.2951 15.1644 15.3975 14.9903 15.3975 14.8727C15.3975 14.7552 15.4486 14.6589 15.5112 14.6589C15.5737 14.6589 15.6249 14.3886 15.6249 14.0581C15.6249 13.7277 15.676 13.4574 15.7386 13.4574C15.8011 13.4574 15.8523 13.187 15.8523 12.8566C15.8523 12.5262 15.9035 12.2558 15.966 12.2558C16.0285 12.2558 16.0797 12.0395 16.0797 11.7752C16.0797 11.5109 16.1309 11.2946 16.1934 11.2946C16.256 11.2946 16.3071 11.0242 16.3071 10.6938C16.3071 10.3634 16.3583 10.093 16.4208 10.093C16.4834 10.093 16.5345 9.87675 16.5345 9.6124C16.5345 9.34806 16.5857 9.13178 16.6483 9.13178C16.7108 9.13178 16.762 8.86144 16.762 8.53101C16.762 8.20058 16.8131 7.93023 16.8757 7.93023C16.9382 7.93023 16.9894 7.65989 16.9894 7.32946C16.9894 6.99903 17.0405 6.72868 17.1031 6.72868C17.1656 6.72868 17.2168 6.45834 17.2168 6.12791C17.2168 5.79748 17.268 5.52713 17.3305 5.52713C17.393 5.52713 17.4442 5.25678 17.4442 4.92636C17.4442 4.59593 17.4954 4.32558 17.5579 4.32558C17.6205 4.32558 17.6716 4.1093 17.6716 3.84496C17.6716 3.58062 17.7228 3.36434 17.7853 3.36434C17.8479 3.36434 17.899 3.09399 17.899 2.76357C17.899 2.43314 17.9502 2.16279 18.0128 2.16279C18.0753 2.16279 18.1265 1.89244 18.1265 1.56202C18.1265 1.23159 18.1776 0.961241 18.2402 0.961241C18.3027 0.961241 18.3539 0.744962 18.3539 0.48062V0H15.2837C12.2894 0 12.2136 0.00588789 12.2136 0.24031ZM20.1732 0.360465C20.1732 0.558721 20.1221 0.720931 20.0595 0.720931C19.997 0.720931 19.9458 0.99128 19.9458 1.32171C19.9458 1.65213 19.8946 1.92248 19.8321 1.92248C19.7689 1.92248 19.7184 2.24293 19.7184 2.64341C19.7184 3.04389 19.6679 3.36434 19.6047 3.36434C19.5421 3.36434 19.491 3.58062 19.491 3.84496C19.491 4.1093 19.4398 4.32558 19.3773 4.32558C19.3147 4.32558 19.2636 4.59593 19.2636 4.92636C19.2636 5.25678 19.2124 5.52713 19.1498 5.52713C19.0873 5.52713 19.0361 5.79748 19.0361 6.12791C19.0361 6.45834 18.985 6.72868 18.9224 6.72868C18.8599 6.72868 18.8087 6.99903 18.8087 7.32946C18.8087 7.65989 18.7575 7.93023 18.695 7.93023C18.6325 7.93023 18.5813 8.20058 18.5813 8.53101C18.5813 8.86144 18.5301 9.13178 18.4676 9.13178C18.405 9.13178 18.3539 9.40213 18.3539 9.73256C18.3539 10.063 18.3027 10.3333 18.2402 10.3333C18.1776 10.3333 18.1265 10.6037 18.1265 10.9341C18.1265 11.2645 18.0753 11.5349 18.0128 11.5349C17.9502 11.5349 17.899 11.8052 17.899 12.1357C17.899 12.4661 17.8479 12.7364 17.7853 12.7364C17.7228 12.7364 17.6716 13.0068 17.6716 13.3372C17.6716 13.6676 17.6205 13.938 17.5579 13.938C17.493 13.938 17.4442 14.2984 17.4442 14.7791C17.4442 15.2597 17.493 15.6202 17.5579 15.6202C17.6228 15.6202 17.6716 15.9806 17.6716 16.4612C17.6716 16.9419 17.7204 17.3023 17.7853 17.3023C17.8486 17.3023 17.899 17.6228 17.899 18.0233C17.899 18.4237 17.9495 18.7442 18.0128 18.7442C18.0753 18.7442 18.1265 18.7983 18.1265 18.8643C18.1265 18.9311 17.8232 18.9845 17.4442 18.9845C16.8378 18.9845 16.762 19.0112 16.762 19.2248C16.762 19.357 16.7108 19.4651 16.6483 19.4651C16.5857 19.4651 16.5345 19.7355 16.5345 20.0659C16.5345 20.3963 16.4834 20.6667 16.4208 20.6667C16.3576 20.6667 16.3071 20.9871 16.3071 21.3876C16.3071 21.7881 16.2566 22.1085 16.1934 22.1085C16.1309 22.1085 16.0797 22.3248 16.0797 22.5891C16.0797 22.8535 16.0285 23.0698 15.966 23.0698C15.9035 23.0698 15.8523 23.2815 15.8523 23.5404C15.8523 23.8082 15.7915 24.0324 15.7112 24.0607C15.6085 24.0969 15.6218 24.1651 15.76 24.311C15.9038 24.4631 16.1582 24.5116 16.8107 24.5116H17.6716V27.155C17.6716 28.8372 17.713 29.7984 17.7853 29.7984C17.8479 29.7984 17.899 29.882 17.899 29.9841C17.899 30.0862 18.0247 30.3025 18.1782 30.4647L18.4572 30.7597H24.5459C28.5291 30.7597 30.6344 30.7181 30.6344 30.6395C30.6344 30.5734 30.5321 30.5194 30.407 30.5194C30.2819 30.5194 30.1796 30.4653 30.1796 30.3992C30.1796 30.3331 30.1011 30.2791 30.0053 30.2791C29.7789 30.2791 29.0425 29.5009 29.0425 29.2617C29.0425 29.1604 28.9913 29.0775 28.9288 29.0775C28.8639 29.0775 28.8151 28.7171 28.8151 28.2364C28.8151 27.7558 28.7663 27.3953 28.7014 27.3953C28.6315 27.3953 28.5877 26.7946 28.5877 25.8333C28.5877 24.8721 28.5439 24.2713 28.474 24.2713C28.404 24.2713 28.3603 23.6705 28.3603 22.7093C28.3603 21.7481 28.3165 21.1473 28.2465 21.1473C28.1771 21.1473 28.1328 20.5865 28.1328 19.7054C28.1328 18.8243 28.0886 18.2636 28.0191 18.2636C27.9492 18.2636 27.9054 17.6628 27.9054 16.7016C27.9054 15.7403 27.8616 15.1395 27.7917 15.1395C27.7218 15.1395 27.678 14.5388 27.678 13.5775C27.678 12.6163 27.6342 12.0155 27.5643 12.0155C27.4944 12.0155 27.4506 11.4147 27.4506 10.4535C27.4506 9.49225 27.4068 8.89147 27.3369 8.89147C27.2674 8.89147 27.2232 8.33071 27.2232 7.44961C27.2232 6.56852 27.1789 6.00775 27.1095 6.00775C27.0395 6.00775 26.9958 5.40698 26.9958 4.44574C26.9958 3.4845 26.952 2.88372 26.882 2.88372C26.8163 2.88372 26.7683 2.50187 26.7683 1.97859C26.7683 1.10591 26.7541 1.05845 26.3741 0.656887C26.1574 0.427752 25.9015 0.24031 25.8056 0.24031C25.7097 0.24031 25.6312 0.186241 25.6312 0.120155C25.6312 0.0433763 24.6457 0 22.9022 0H20.1732V0.360465ZM64.5196 0.120155C64.5196 0.186241 64.315 0.24031 64.0648 0.24031C63.8146 0.24031 63.61 0.29438 63.61 0.360465C63.61 0.426551 63.5076 0.48062 63.3825 0.48062C63.2575 0.48062 63.1551 0.53469 63.1551 0.600776C63.1551 0.666861 63.0016 0.720931 62.814 0.720931C62.6264 0.720931 62.4729 0.775 62.4729 0.841086C62.4729 0.907171 62.3818 0.961241 62.2706 0.961241C62.1593 0.961241 61.9945 1.06938 61.9043 1.20155C61.8142 1.33372 61.6742 1.44186 61.5933 1.44186C61.4015 1.44186 59.5164 3.43379 59.5164 3.63649C59.5164 3.72192 59.4141 3.86983 59.289 3.96512C59.1639 4.0604 59.0616 4.22261 59.0616 4.32558C59.0616 4.42856 58.9593 4.59076 58.8342 4.68605C58.7091 4.78133 58.6068 4.95543 58.6068 5.07307C58.6068 5.19058 58.5556 5.28682 58.4931 5.28682C58.4305 5.28682 58.3794 5.44903 58.3794 5.64729C58.3794 5.84554 58.3282 6.00775 58.2656 6.00775C58.2031 6.00775 58.1519 6.11589 58.1519 6.24806C58.1519 6.38023 58.1008 6.48837 58.0382 6.48837C57.9757 6.48837 57.9245 6.65058 57.9245 6.84884C57.9245 7.04709 57.8734 7.2093 57.8108 7.2093C57.7483 7.2093 57.6971 7.42558 57.6971 7.68992C57.6971 7.95426 57.6459 8.17054 57.5834 8.17054C57.5209 8.17054 57.4697 8.38682 57.4697 8.65116C57.4697 8.91551 57.4185 9.13178 57.356 9.13178C57.2934 9.13178 57.2423 9.34806 57.2423 9.6124C57.2423 9.87675 57.1911 10.093 57.1286 10.093C57.066 10.093 57.0149 10.3634 57.0149 10.6938C57.0149 11.0242 56.9637 11.2946 56.9011 11.2946C56.8386 11.2946 56.7874 11.5109 56.7874 11.7752C56.7874 12.0395 56.7363 12.2558 56.6737 12.2558C56.6112 12.2558 56.56 12.4721 56.56 12.7364C56.56 13.0008 56.5089 13.2171 56.4463 13.2171C56.3838 13.2171 56.3326 13.4874 56.3326 13.8178C56.3326 14.1483 56.2814 14.4186 56.2189 14.4186C56.1564 14.4186 56.1052 14.6349 56.1052 14.8992C56.1052 15.1636 56.054 15.3798 55.9915 15.3798C55.9289 15.3798 55.8778 15.5961 55.8778 15.8605C55.8778 16.1248 55.8266 16.3411 55.7641 16.3411C55.7015 16.3411 55.6504 16.6114 55.6504 16.9419C55.6504 17.2723 55.5992 17.5426 55.5366 17.5426C55.4741 17.5426 55.4229 17.813 55.4229 18.1434C55.4229 18.4738 55.3718 18.7442 55.3092 18.7442C55.2467 18.7442 55.1955 18.9605 55.1955 19.2248C55.1955 19.4891 55.1443 19.7054 55.0818 19.7054C55.0193 19.7054 54.9681 19.9758 54.9681 20.3062C54.9681 20.6366 54.9169 20.907 54.8544 20.907C54.7918 20.907 54.7407 21.1773 54.7407 21.5078C54.7407 21.8382 54.6895 22.1085 54.627 22.1085C54.5551 22.1085 54.5133 22.9496 54.5133 24.3915C54.5133 25.8333 54.5551 26.6744 54.627 26.6744C54.6895 26.6744 54.7407 26.8366 54.7407 27.0349C54.7407 27.2331 54.7918 27.3953 54.8544 27.3953C54.9169 27.3953 54.9681 27.5035 54.9681 27.6357C54.9681 27.7678 55.0193 27.876 55.0818 27.876C55.1443 27.876 55.1955 27.958 55.1955 28.0585C55.1955 28.296 56.6173 29.7984 56.8421 29.7984C56.9372 29.7984 57.0149 29.8525 57.0149 29.9186C57.0149 29.9847 57.1684 30.0388 57.356 30.0388C57.5436 30.0388 57.6971 30.0928 57.6971 30.1589C57.6971 30.225 57.8506 30.2791 58.0382 30.2791C58.2259 30.2791 58.3794 30.3331 58.3794 30.3992C58.3794 30.4653 58.584 30.5194 58.8342 30.5194C59.0844 30.5194 59.289 30.5734 59.289 30.6395C59.289 30.7184 61.7906 30.7597 66.5664 30.7597C71.3422 30.7597 73.8438 30.7184 73.8438 30.6395C73.8438 30.5734 73.9728 30.5194 74.1305 30.5194C74.5272 30.5194 75.6631 29.319 75.6631 28.8999C75.6631 28.7333 75.7143 28.5969 75.7768 28.5969C75.8394 28.5969 75.8905 28.3806 75.8905 28.1163C75.8905 27.8519 75.9417 27.6357 76.0042 27.6357C76.0668 27.6357 76.118 27.4194 76.118 27.155C76.118 26.8907 76.1691 26.6744 76.2317 26.6744C76.2942 26.6744 76.3454 26.4041 76.3454 26.0736C76.3454 25.7432 76.3965 25.4729 76.4591 25.4729C76.5216 25.4729 76.5728 25.2566 76.5728 24.9922C76.5728 24.7279 76.6239 24.5116 76.6865 24.5116C76.749 24.5116 76.8002 24.2953 76.8002 24.031C76.8002 23.7667 76.8514 23.5504 76.9139 23.5504C76.9764 23.5504 77.0276 23.3882 77.0276 23.1899C77.0276 22.9917 76.997 22.8295 76.9595 22.8295C76.9221 22.8295 76.748 22.9917 76.5728 23.1899C76.3976 23.3882 76.1723 23.5504 76.0723 23.5504C75.9723 23.5504 75.8905 23.6045 75.8905 23.6705C75.8905 23.7366 75.7882 23.7907 75.6631 23.7907C75.538 23.7907 75.4357 23.8448 75.4357 23.9109C75.4357 23.9887 74.0333 24.031 71.4559 24.031C68.8784 24.031 67.4761 23.9887 67.4761 23.9109C67.4761 23.8448 67.3976 23.7907 67.3018 23.7907C67.0754 23.7907 66.339 23.0126 66.339 22.7733C66.339 22.6721 66.2878 22.5891 66.2253 22.5891C66.1603 22.5891 66.1116 22.2287 66.1116 21.7481C66.1116 21.2674 66.1603 20.907 66.2253 20.907C66.2878 20.907 66.339 20.6366 66.339 20.3062C66.339 19.9758 66.3902 19.7054 66.4527 19.7054C66.5152 19.7054 66.5664 19.4891 66.5664 19.2248C66.5664 18.9605 66.6176 18.7442 66.6801 18.7442C66.7427 18.7442 66.7938 18.5279 66.7938 18.2636C66.7938 17.9992 66.845 17.7829 66.9075 17.7829C66.9701 17.7829 67.0212 17.5667 67.0212 17.3023C67.0212 17.038 67.0724 16.8217 67.1349 16.8217C67.1975 16.8217 67.2486 16.6054 67.2486 16.3411C67.2486 16.0767 67.2998 15.8605 67.3624 15.8605C67.4249 15.8605 67.4761 15.6442 67.4761 15.3798C67.4761 15.1155 67.5272 14.8992 67.5898 14.8992C67.6523 14.8992 67.7035 14.6289 67.7035 14.2985C67.7035 13.968 67.7547 13.6977 67.8172 13.6977C67.8797 13.6977 67.9309 13.4273 67.9309 13.0969C67.9309 12.7665 67.9821 12.4961 68.0446 12.4961C68.1072 12.4961 68.1583 12.2798 68.1583 12.0155C68.1583 11.7512 68.2095 11.5349 68.272 11.5349C68.3346 11.5349 68.3857 11.3186 68.3857 11.0543C68.3857 10.7899 68.4369 10.5736 68.4995 10.5736C68.562 10.5736 68.6132 10.3574 68.6132 10.093C68.6132 9.82868 68.6643 9.6124 68.7269 9.6124C68.7894 9.6124 68.8406 9.39612 68.8406 9.13178C68.8406 8.86744 68.8917 8.65116 68.9543 8.65116C69.0168 8.65116 69.068 8.55492 69.068 8.43741C69.068 8.31978 69.1703 8.14567 69.2954 8.05039C69.4205 7.95511 69.5228 7.80551 69.5228 7.71804C69.5228 7.49876 70.0419 6.96899 70.2568 6.96899C70.3535 6.96899 70.4325 6.91492 70.4325 6.84884C70.4325 6.78275 70.586 6.72868 70.7736 6.72868C70.9613 6.72868 71.1148 6.67461 71.1148 6.60853C71.1148 6.53115 72.2897 6.48837 74.4123 6.48837C76.5349 6.48837 77.7099 6.4456 77.7099 6.36822C77.7099 6.30213 77.8395 6.24806 77.9979 6.24806C78.3182 6.24806 79.0744 5.5335 79.0744 5.23071C79.0744 5.12942 79.1256 5.04651 79.1881 5.04651C79.2506 5.04651 79.3018 4.8843 79.3018 4.68605C79.3018 4.48779 79.353 4.32558 79.4155 4.32558C79.4781 4.32558 79.5292 4.1093 79.5292 3.84496C79.5292 3.58062 79.5804 3.36434 79.6429 3.36434C79.7055 3.36434 79.7566 3.14806 79.7566 2.88372C79.7566 2.61938 79.8078 2.4031 79.8704 2.4031C79.9329 2.4031 79.9841 2.18682 79.9841 1.92248C79.9841 1.65814 80.0352 1.44186 80.0978 1.44186C80.1603 1.44186 80.2115 1.22558 80.2115 0.961241C80.2115 0.6969 80.2626 0.48062 80.3252 0.48062C80.3877 0.48062 80.4389 0.372481 80.4389 0.24031C80.4389 0.00228325 80.363 0 72.4793 0C67.2487 0 64.5196 0.0412135 64.5196 0.120155ZM51.3294 6.60853C51.3294 6.67461 51.1247 6.72868 50.8746 6.72868C50.6244 6.72868 50.4198 6.78275 50.4198 6.84884C50.4198 6.91492 50.3419 6.96899 50.2467 6.96899C50.0215 6.96899 48.8278 8.23038 48.8278 8.46829C48.8278 8.56886 48.7767 8.65116 48.7141 8.65116C48.6516 8.65116 48.6004 8.74741 48.6004 8.86492C48.6004 8.98255 48.4981 9.15666 48.373 9.25194C48.2479 9.34722 48.1456 9.49814 48.1456 9.58741C48.1456 9.92313 47.8234 10.093 47.1871 10.093C46.6295 10.093 46.5536 10.0643 46.5536 9.85272C46.5536 9.72054 46.6048 9.6124 46.6674 9.6124C46.7299 9.6124 46.7811 9.39612 46.7811 9.13178C46.7811 8.86744 46.8322 8.65116 46.8948 8.65116C46.9573 8.65116 47.0085 8.43489 47.0085 8.17054C47.0085 7.9062 46.9573 7.68992 46.8948 7.68992C46.8322 7.68992 46.7811 7.60498 46.7811 7.50116C46.7811 6.97909 46.6901 6.96899 41.9661 6.96899C38.4804 6.96899 37.463 6.93535 37.4182 6.8188C37.3747 6.70537 37.3285 6.7127 37.2295 6.84884C37.1306 6.98497 37.0843 6.9923 37.0409 6.87888C37.0092 6.79633 36.8893 6.72868 36.7747 6.72868C36.6601 6.72868 36.5402 6.79633 36.5085 6.87888C36.4643 6.99411 36.4248 6.98954 36.3389 6.85941C36.2438 6.71535 36.1982 6.71991 36.0378 6.88945C35.8698 7.06692 35.8678 7.10921 36.0193 7.26938C36.1131 7.36851 36.2703 7.44961 36.3686 7.44961C36.4669 7.44961 36.5473 7.54586 36.5473 7.66337C36.5473 7.781 36.6496 7.95511 36.7747 8.05039C36.9637 8.19433 37.0021 8.36147 37.0021 9.03818C37.0021 9.50114 36.953 9.85272 36.8884 9.85272C36.8259 9.85272 36.7747 10.1231 36.7747 10.4535C36.7747 10.7839 36.7235 11.0543 36.661 11.0543C36.5985 11.0543 36.5473 11.2705 36.5473 11.5349C36.5473 11.7992 36.4961 12.0155 36.4336 12.0155C36.371 12.0155 36.3199 12.2318 36.3199 12.4961C36.3199 12.7605 36.2687 12.9767 36.2062 12.9767C36.1436 12.9767 36.0924 13.193 36.0924 13.4574C36.0924 13.7217 36.0413 13.938 35.9787 13.938C35.9162 13.938 35.865 14.2083 35.865 14.5388C35.865 14.8692 35.8139 15.1395 35.7513 15.1395C35.6888 15.1395 35.6376 15.3558 35.6376 15.6202C35.6376 15.8845 35.5864 16.1008 35.5239 16.1008C35.4614 16.1008 35.4102 16.3171 35.4102 16.5814C35.4102 16.8457 35.359 17.062 35.2965 17.062C35.2339 17.062 35.1828 17.2783 35.1828 17.5426C35.1828 17.807 35.1316 18.0233 35.0691 18.0233C35.0065 18.0233 34.9554 18.2936 34.9554 18.624C34.9554 18.9545 34.9042 19.2248 34.8417 19.2248C34.7791 19.2248 34.7279 19.4411 34.7279 19.7054C34.7279 19.9698 34.6768 20.186 34.6142 20.186C34.5517 20.186 34.5005 20.4023 34.5005 20.6667C34.5005 20.931 34.4494 21.1473 34.3868 21.1473C34.3243 21.1473 34.2731 21.3636 34.2731 21.6279C34.2731 21.8923 34.2219 22.1085 34.1594 22.1085C34.0969 22.1085 34.0457 22.3789 34.0457 22.7093C34.0457 23.0397 33.9945 23.3101 33.932 23.3101C33.8694 23.3101 33.8183 23.5264 33.8183 23.7907C33.8183 24.055 33.7671 24.2713 33.7046 24.2713C33.642 24.2713 33.5909 24.5417 33.5909 24.8721C33.5909 25.2025 33.5397 25.4729 33.4771 25.4729C33.4146 25.4729 33.3634 25.6891 33.3634 25.9535C33.3634 26.2178 33.3123 26.4341 33.2497 26.4341C33.1872 26.4341 33.136 26.6504 33.136 26.9147C33.136 27.1791 33.0849 27.3953 33.0223 27.3953C32.9598 27.3953 32.9086 27.6116 32.9086 27.876C32.9086 28.1403 32.8574 28.3566 32.7949 28.3566C32.7324 28.3566 32.6812 28.6269 32.6812 28.9574C32.6812 29.2878 32.63 29.5581 32.5675 29.5581C32.3456 29.5581 32.458 30.1743 32.7329 30.4647L33.012 30.7597H38.5321C43.9762 30.7597 44.0521 30.7564 44.0521 30.5194C44.0521 30.3828 43.9762 30.2791 43.8764 30.2791C43.6001 30.2791 43.1424 29.7206 43.1424 29.3833C43.1424 29.2151 43.0912 29.0775 43.0287 29.0775C42.9661 29.0775 42.915 28.8612 42.915 28.5969C42.915 28.3326 42.9661 28.1163 43.0287 28.1163C43.0912 28.1163 43.1424 27.8459 43.1424 27.5155C43.1424 27.1851 43.1936 26.9147 43.2561 26.9147C43.3186 26.9147 43.3698 26.6985 43.3698 26.4341C43.3698 26.1698 43.421 25.9535 43.4835 25.9535C43.546 25.9535 43.5972 25.7372 43.5972 25.4729C43.5972 25.2085 43.6484 24.9922 43.7109 24.9922C43.7735 24.9922 43.8246 24.776 43.8246 24.5116C43.8246 24.2473 43.8758 24.031 43.9383 24.031C44.0009 24.031 44.0521 23.7607 44.0521 23.4302C44.0521 23.0998 44.1032 22.8295 44.1658 22.8295C44.2283 22.8295 44.2795 22.6132 44.2795 22.3488C44.2795 22.0845 44.3306 21.8682 44.3932 21.8682C44.4557 21.8682 44.5069 21.5979 44.5069 21.2674C44.5069 20.937 44.5581 20.6667 44.6206 20.6667C44.6831 20.6667 44.7343 20.4504 44.7343 20.186C44.7343 19.9217 44.7855 19.7054 44.848 19.7054C44.9106 19.7054 44.9617 19.4891 44.9617 19.2248C44.9617 18.9605 45.0129 18.7442 45.0754 18.7442C45.138 18.7442 45.1891 18.5279 45.1891 18.2636C45.1891 17.9992 45.2403 17.7829 45.3029 17.7829C45.3654 17.7829 45.4166 17.5667 45.4166 17.3023C45.4166 17.038 45.4677 16.8217 45.5303 16.8217C45.5928 16.8217 45.644 16.5514 45.644 16.2209C45.644 15.8905 45.6951 15.6202 45.7577 15.6202C45.8202 15.6202 45.8714 15.4832 45.8714 15.3158C45.8714 14.9773 46.5476 14.1783 46.8342 14.1783C46.93 14.1783 47.0085 14.1242 47.0085 14.0581C47.0085 13.9921 47.162 13.938 47.3496 13.938C47.5372 13.938 47.6907 13.8839 47.6907 13.8178C47.6907 13.7421 48.4488 13.6977 49.7375 13.6977C51.0262 13.6977 51.7842 13.6532 51.7842 13.5775C51.7842 13.5114 51.9378 13.4574 52.1254 13.4574C52.313 13.4574 52.4665 13.4033 52.4665 13.3372C52.4665 13.2711 52.545 13.2171 52.6408 13.2171C52.8672 13.2171 53.6036 12.4389 53.6036 12.1997C53.6036 12.0984 53.6548 12.0155 53.7173 12.0155C53.7798 12.0155 53.831 11.7992 53.831 11.5349C53.831 11.2705 53.8822 11.0543 53.9447 11.0543C54.0073 11.0543 54.0584 10.838 54.0584 10.5736C54.0584 10.3093 54.1096 10.093 54.1721 10.093C54.2347 10.093 54.2858 9.82268 54.2858 9.49225C54.2858 9.16182 54.337 8.89147 54.3996 8.89147C54.4621 8.89147 54.5133 8.67519 54.5133 8.41085C54.5133 8.14651 54.5644 7.93023 54.627 7.93023C54.6895 7.93023 54.7407 7.71852 54.7407 7.45959C54.7407 7.19176 54.8015 6.96755 54.8818 6.93932C54.9845 6.90315 54.9712 6.8349 54.8331 6.68903C54.6731 6.51997 54.3823 6.48837 52.9863 6.48837C51.9575 6.48837 51.3294 6.53391 51.3294 6.60853ZM86.7213 6.90844C86.6432 7.00228 86.5792 7.16244 86.5792 7.26433C86.5792 7.36623 86.528 7.44961 86.4655 7.44961C86.4029 7.44961 86.3518 7.66589 86.3518 7.93023C86.3518 8.19457 86.3006 8.41085 86.238 8.41085C86.1755 8.41085 86.1243 8.57306 86.1243 8.77132C86.1243 8.96957 86.0732 9.13178 86.0106 9.13178C85.9481 9.13178 85.8969 9.40213 85.8969 9.73256C85.8969 10.063 85.8457 10.3333 85.7832 10.3333C85.719 10.3333 85.6695 10.6766 85.6695 11.1229C85.6695 11.9982 85.8099 12.2558 86.2868 12.2558C86.4476 12.2558 86.5792 12.3099 86.5792 12.376C86.5792 12.4536 87.8516 12.4961 90.1691 12.4961C93.9344 12.4961 94.084 12.5164 94.084 13.0283C94.084 13.1321 94.1351 13.2171 94.1977 13.2171C94.264 13.2171 94.3114 13.6175 94.3114 14.1783C94.3114 14.7391 94.264 15.1395 94.1977 15.1395C94.1351 15.1395 94.084 15.4099 94.084 15.7403C94.084 16.0707 94.0328 16.3411 93.9702 16.3411C93.9077 16.3411 93.8565 16.6114 93.8565 16.9419C93.8565 17.2723 93.8054 17.5426 93.7428 17.5426C93.6803 17.5426 93.6291 17.813 93.6291 18.1434C93.6291 18.4738 93.578 18.7442 93.5154 18.7442C93.4529 18.7442 93.4017 19.0145 93.4017 19.345C93.4017 19.6754 93.3505 19.9457 93.288 19.9457C93.2255 19.9457 93.1743 20.2161 93.1743 20.5465C93.1743 20.8769 93.1231 21.1473 93.0606 21.1473C92.998 21.1473 92.9469 21.4176 92.9469 21.7481C92.9469 22.0785 92.8957 22.3488 92.8332 22.3488C92.7706 22.3488 92.7195 22.6192 92.7195 22.9496C92.7195 23.28 92.6683 23.5504 92.6057 23.5504C92.5432 23.5504 92.492 23.7667 92.492 24.031C92.492 24.2953 92.4409 24.5116 92.3783 24.5116C92.3151 24.5116 92.2646 24.8321 92.2646 25.2326C92.2646 25.633 92.2141 25.9535 92.1509 25.9535C92.0884 25.9535 92.0372 26.2238 92.0372 26.5543C92.0372 26.8847 91.986 27.155 91.9235 27.155C91.861 27.155 91.8098 27.3713 91.8098 27.6357C91.8098 27.9 91.7586 28.1163 91.6961 28.1163C91.6335 28.1163 91.5824 28.3866 91.5824 28.7171C91.5824 29.0475 91.5312 29.3178 91.4687 29.3178C91.2018 29.3178 91.3738 29.9465 91.7492 30.3431L92.1433 30.7597H97.2072C100.507 30.7597 102.271 30.8015 102.271 30.8798C102.271 30.9459 102.322 31 102.385 31C102.447 31 102.498 30.8919 102.498 30.7597C102.498 30.6239 102.423 30.5194 102.324 30.5194C102.228 30.5194 101.972 30.3319 101.756 30.1028C101.386 29.7125 101.361 29.6368 101.361 28.9013C101.361 28.458 101.411 28.1163 101.475 28.1163C101.538 28.1163 101.589 27.9 101.589 27.6357C101.589 27.3713 101.64 27.155 101.702 27.155C101.765 27.155 101.816 26.8847 101.816 26.5543C101.816 26.2238 101.867 25.9535 101.93 25.9535C101.992 25.9535 102.044 25.7372 102.044 25.4729C102.044 25.2085 102.095 24.9922 102.157 24.9922C102.22 24.9922 102.271 24.776 102.271 24.5116C102.271 24.2473 102.322 24.031 102.385 24.031C102.447 24.031 102.498 23.8147 102.498 23.5504C102.498 23.286 102.55 23.0698 102.612 23.0698C102.675 23.0698 102.726 22.7994 102.726 22.469C102.726 22.1386 102.777 21.8682 102.84 21.8682C102.902 21.8682 102.953 21.6519 102.953 21.3876C102.953 21.1233 103.004 20.907 103.067 20.907C103.129 20.907 103.181 20.6366 103.181 20.3062C103.181 19.9758 103.232 19.7054 103.294 19.7054C103.357 19.7054 103.408 19.4891 103.408 19.2248C103.408 18.9605 103.459 18.7442 103.522 18.7442C103.584 18.7442 103.635 18.5279 103.635 18.2636C103.635 17.9992 103.687 17.7829 103.749 17.7829C103.812 17.7829 103.863 17.5667 103.863 17.3023C103.863 17.038 103.914 16.8217 103.977 16.8217C104.039 16.8217 104.09 16.5514 104.09 16.2209C104.09 15.8905 104.141 15.6202 104.204 15.6202C104.267 15.6202 104.318 15.4039 104.318 15.1395C104.318 14.8752 104.369 14.6589 104.431 14.6589C104.494 14.6589 104.545 14.3886 104.545 14.0581C104.545 13.7277 104.596 13.4574 104.659 13.4574C104.721 13.4574 104.773 13.2411 104.773 12.9767C104.773 12.7124 104.824 12.4961 104.886 12.4961C104.956 12.4961 105 11.8954 105 10.9341C105 9.97287 104.956 9.37209 104.886 9.37209C104.824 9.37209 104.773 9.26395 104.773 9.13178C104.773 8.99961 104.721 8.89147 104.659 8.89147C104.596 8.89147 104.545 8.80893 104.545 8.70812C104.545 8.46961 103.58 7.44961 103.354 7.44961C103.259 7.44961 103.181 7.39554 103.181 7.32946C103.181 7.26337 103.027 7.2093 102.84 7.2093C102.652 7.2093 102.498 7.15523 102.498 7.08915C102.498 7.01021 99.8452 6.96899 94.7662 6.96899C89.6872 6.96899 87.034 6.92778 87.034 6.84884C87.034 6.67966 86.8888 6.7073 86.7213 6.90844ZM85.8969 15.5C85.8969 15.5668 85.5937 15.6202 85.2147 15.6202C84.8357 15.6202 84.5324 15.6735 84.5324 15.7403C84.5324 15.8064 84.3789 15.8605 84.1913 15.8605C84.0037 15.8605 83.8502 15.9145 83.8502 15.9806C83.8502 16.0467 83.7478 16.1008 83.6227 16.1008C83.4977 16.1008 83.3953 16.1548 83.3953 16.2209C83.3953 16.287 83.3136 16.3411 83.2135 16.3411C83.1136 16.3411 82.8883 16.5033 82.7131 16.7016C82.5378 16.8998 82.3126 17.062 82.2126 17.062C82.1126 17.062 82.0308 17.1473 82.0308 17.2516C82.0308 17.356 81.8261 17.6491 81.576 17.9031C81.3258 18.1571 81.1211 18.4502 81.1211 18.5546C81.1211 18.6589 81.07 18.7442 81.0074 18.7442C80.9449 18.7442 80.8937 18.8404 80.8937 18.9579C80.8937 19.0756 80.7914 19.2497 80.6663 19.345C80.5328 19.4467 80.4389 19.656 80.4389 19.8521C80.4389 20.0357 80.3877 20.186 80.3252 20.186C80.2626 20.186 80.2115 20.2942 80.2115 20.4264C80.2115 20.5585 80.1603 20.6667 80.0978 20.6667C80.0352 20.6667 79.9841 20.8289 79.9841 21.0271C79.9841 21.2254 79.9329 21.3876 79.8704 21.3876C79.8078 21.3876 79.7566 21.6039 79.7566 21.8682C79.7566 22.1326 79.7055 22.3488 79.6429 22.3488C79.5804 22.3488 79.5292 22.5651 79.5292 22.8295C79.5292 23.0938 79.4781 23.3101 79.4155 23.3101C79.3523 23.3101 79.3018 23.6305 79.3018 24.031C79.3018 24.4315 79.2513 24.7519 79.1881 24.7519C79.1182 24.7519 79.0744 25.3527 79.0744 26.314C79.0744 27.2752 79.1182 27.876 79.1881 27.876C79.2506 27.876 79.3018 28.0922 79.3018 28.3566C79.3018 28.6209 79.353 28.8372 79.4155 28.8372C79.4781 28.8372 79.5292 28.9198 79.5292 29.0206C79.5292 29.2591 80.4945 30.2791 80.7202 30.2791C80.8156 30.2791 80.8937 30.3331 80.8937 30.3992C80.8937 30.4653 81.0472 30.5194 81.2349 30.5194C81.4225 30.5194 81.576 30.5734 81.576 30.6395C81.576 30.7164 82.5994 30.7597 84.4187 30.7597C86.2381 30.7597 87.2614 30.7164 87.2614 30.6395C87.2614 30.5734 87.4149 30.5194 87.6026 30.5194C87.7902 30.5194 87.9437 30.4653 87.9437 30.3992C87.9437 30.3331 88.046 30.2791 88.1711 30.2791C88.2962 30.2791 88.3985 30.225 88.3985 30.1589C88.3985 30.0928 88.477 30.0388 88.5728 30.0388C88.7857 30.0388 89.5356 29.267 89.5356 29.048C89.5356 28.9612 89.6379 28.8123 89.763 28.7171C89.8881 28.6218 89.9904 28.4596 89.9904 28.3566C89.9904 28.2536 90.0928 28.0914 90.2179 27.9961C90.3763 27.8755 90.4453 27.685 90.4453 27.3688C90.4453 27.1191 90.4964 26.9147 90.559 26.9147C90.6215 26.9147 90.6727 26.6444 90.6727 26.314C90.6727 25.9835 90.7239 25.7132 90.7864 25.7132C90.8489 25.7132 90.9001 25.6591 90.9001 25.593C90.9001 25.5269 90.6443 25.4729 90.3316 25.4729C90.0189 25.4729 89.763 25.4188 89.763 25.3527C89.763 25.2866 89.6607 25.2326 89.5356 25.2326C89.384 25.2326 89.3082 25.1524 89.3082 24.9922C89.3082 24.8601 89.257 24.7519 89.1945 24.7519C89.1282 24.7519 89.0808 24.3515 89.0808 23.7907C89.0808 23.2299 89.1282 22.8295 89.1945 22.8295C89.257 22.8295 89.3082 22.6132 89.3082 22.3488C89.3082 22.0845 89.3594 21.8682 89.4219 21.8682C89.4844 21.8682 89.5356 21.6519 89.5356 21.3876C89.5356 21.1233 89.5868 20.907 89.6493 20.907C89.7118 20.907 89.763 20.7988 89.763 20.6667C89.763 20.5345 89.8142 20.4264 89.8767 20.4264C89.9393 20.4264 89.9904 20.3414 89.9904 20.2376C89.9904 20.0059 90.2607 19.7054 90.4689 19.7054C90.5534 19.7054 90.6962 19.5973 90.7864 19.4651C90.8766 19.3329 91.0706 19.2248 91.2176 19.2248C91.5982 19.2248 91.8098 18.9488 91.8098 18.4523C91.8098 18.2163 91.861 18.0233 91.9235 18.0233C91.986 18.0233 92.0372 17.807 92.0372 17.5426C92.0372 17.2783 92.0884 17.062 92.1509 17.062C92.2134 17.062 92.2646 16.8457 92.2646 16.5814C92.2646 16.3171 92.3158 16.1008 92.3783 16.1008C92.4409 16.1008 92.492 15.9386 92.492 15.7403V15.3798H89.1945C87.0719 15.3798 85.8969 15.4226 85.8969 15.5Z" fill="#2C2D6E"/>
</svg>
