<svg width="40" height="40" viewBox="0 0 40 40" fill="none" xmlns="http://www.w3.org/2000/svg">
<path fill-rule="evenodd" clip-rule="evenodd" d="M20 39C30.4934 39 39 30.4934 39 20C39 9.50659 30.4934 1 20 1C9.50659 1 1 9.50659 1 20C1 30.4934 9.50659 39 20 39ZM20 40C31.0457 40 40 31.0457 40 20C40 8.9543 31.0457 0 20 0C8.9543 0 0 8.9543 0 20C0 31.0457 8.9543 40 20 40ZM19.3648 11.658C19.5536 11.8595 19.5434 12.1759 19.342 12.3648L12.2644 19H28.5C28.7761 19 29 19.2239 29 19.5C29 19.7761 28.7761 20 28.5 20H12.2644L19.342 26.6352C19.5434 26.8241 19.5536 27.1405 19.3648 27.342C19.1759 27.5434 18.8595 27.5536 18.658 27.3648L10.658 19.8648C10.5572 19.7702 10.5 19.6382 10.5 19.5C10.5 19.3618 10.5572 19.2298 10.658 19.1352L18.658 11.6352C18.8595 11.4464 19.1759 11.4566 19.3648 11.658Z" fill="#1D1D1D"/>
</svg>
