<svg width="40" height="40" viewBox="0 0 40 40" fill="none" xmlns="http://www.w3.org/2000/svg">
<path fill-rule="evenodd" clip-rule="evenodd" d="M20 1C9.50659 1 0.999997 9.50659 0.999998 20C0.999999 30.4934 9.50659 39 20 39C30.4934 39 39 30.4934 39 20C39 9.50659 30.4934 1 20 1ZM20 1.74846e-06C8.9543 2.7141e-06 -2.7141e-06 8.95431 -1.74846e-06 20C-7.8281e-07 31.0457 8.95431 40 20 40C31.0457 40 40 31.0457 40 20C40 8.95431 31.0457 7.8281e-07 20 1.74846e-06ZM20.6352 28.342C20.4464 28.1405 20.4566 27.8241 20.658 27.6352L27.7356 21L11.5 21C11.2239 21 11 20.7761 11 20.5C11 20.2239 11.2239 20 11.5 20L27.7356 20L20.658 13.3648C20.4566 13.1759 20.4464 12.8595 20.6352 12.658C20.8241 12.4566 21.1405 12.4464 21.342 12.6352L29.342 20.1352C29.4428 20.2298 29.5 20.3618 29.5 20.5C29.5 20.6382 29.4428 20.7702 29.342 20.8648L21.342 28.3648C21.1405 28.5536 20.8241 28.5434 20.6352 28.342Z" fill="#1D1D1D"/>
</svg>
