<svg width="56" height="56" viewBox="0 0 56 56" fill="none" xmlns="http://www.w3.org/2000/svg">
<path fill-rule="evenodd" clip-rule="evenodd" d="M28 56C43.464 56 56 43.464 56 28C56 12.536 43.464 0 28 0C12.536 0 0 12.536 0 28C0 43.464 12.536 56 28 56ZM29.8049 34.0371L30.1756 12.6H25.5902L26.0976 34.0371H29.8049ZM26.0195 42.595C26.5659 43.1317 27.2293 43.4 28.0098 43.4C28.7642 43.4 29.4146 43.1317 29.961 42.595C30.5203 42.0443 30.8 41.3806 30.8 40.6039C30.8 39.7989 30.5203 39.114 29.961 38.5491C29.4146 37.9842 28.7642 37.7018 28.0098 37.7018C27.2293 37.7018 26.5659 37.9842 26.0195 38.5491C25.4732 39.114 25.2 39.7989 25.2 40.6039C25.2 41.3806 25.4732 42.0443 26.0195 42.595Z" fill="#F50C14"/>
</svg>
