<svg width="16" height="12" viewBox="0 0 16 12" fill="none" xmlns="http://www.w3.org/2000/svg">
<path d="M2.52632 0H13.4737C14.1437 0 14.7863 0.252856 15.2601 0.702944C15.7338 1.15303 16 1.76348 16 2.4V9.6C16 10.2365 15.7338 10.847 15.2601 11.2971C14.7863 11.7471 14.1437 12 13.4737 12H2.52632C1.8563 12 1.21372 11.7471 0.739941 11.2971C0.266165 10.847 0 10.2365 0 9.6V2.4C0 1.76348 0.266165 1.15303 0.739941 0.702944C1.21372 0.252856 1.8563 0 2.52632 0ZM2.52632 0.8C2.07964 0.8 1.65125 0.968571 1.3354 1.26863C1.01955 1.56869 0.842105 1.97565 0.842105 2.4V3.2H15.1579V2.4C15.1579 1.97565 14.9805 1.56869 14.6646 1.26863C14.3487 0.968571 13.9204 0.8 13.4737 0.8H2.52632ZM0.842105 9.6C0.842105 10.0243 1.01955 10.4313 1.3354 10.7314C1.65125 11.0314 2.07964 11.2 2.52632 11.2H13.4737C13.9204 11.2 14.3487 11.0314 14.6646 10.7314C14.9805 10.4313 15.1579 10.0243 15.1579 9.6V5.6H0.842105V9.6ZM2.52632 8.8H5.89474V9.6H2.52632V8.8ZM0.842105 4V4.8H15.1579V4H0.842105Z" fill="#656565"/>
</svg>
