<svg width="48" height="48" viewBox="0 0 48 48" fill="none" xmlns="http://www.w3.org/2000/svg">
<rect width="48" height="48" rx="24" fill="black"/>
<path fill-rule="evenodd" clip-rule="evenodd" d="M17.7148 13.0286C15.5057 13.0286 13.7148 14.8194 13.7148 17.0286V30.2857C13.7148 32.4948 15.5057 34.2857 17.7148 34.2857H30.972C33.1811 34.2857 34.972 32.4948 34.972 30.2857V17.0286C34.972 14.8194 33.1811 13.0286 30.972 13.0286H17.7148ZM17.2332 14.547C16.1286 14.547 15.2332 15.4424 15.2332 16.547V30.7674C15.2332 31.872 16.1286 32.7674 17.2332 32.7674H31.4536C32.5582 32.7674 33.4536 31.872 33.4536 30.7674V16.547C33.4536 15.4424 32.5582 14.547 31.4536 14.547H17.2332Z" fill="white"/>
<path fill-rule="evenodd" clip-rule="evenodd" d="M24 30C27.3137 30 30 27.3137 30 24C30 20.6863 27.3137 18 24 18C20.6863 18 18 20.6863 18 24C18 27.3137 20.6863 30 24 30ZM24 29C26.7614 29 29 26.7614 29 24C29 21.2386 26.7614 19 24 19C21.2386 19 19 21.2386 19 24C19 26.7614 21.2386 29 24 29Z" fill="white"/>
<circle cx="29.4847" cy="17.1429" r="1.37143" fill="white"/>
</svg>
