<svg width="24" height="18" viewBox="0 0 24 18" fill="none" xmlns="http://www.w3.org/2000/svg">
<path d="M21 0H3C2.20461 0.000812161 1.44204 0.302777 0.879619 0.839637C0.317195 1.3765 0.000850835 2.1044 0 2.86364V15.1364C0.000850835 15.8956 0.317195 16.6235 0.879619 17.1604C1.44204 17.6972 2.20461 17.9992 3 18H21C21.7954 17.9992 22.558 17.6972 23.1204 17.1604C23.6828 16.6235 23.9991 15.8956 24 15.1364V2.86364C23.9991 2.1044 23.6828 1.3765 23.1204 0.839637C22.558 0.302777 21.7954 0.000812161 21 0ZM20.2404 4.73676L12.5261 10.464C12.3756 10.5757 12.1905 10.6363 12 10.6363C11.8095 10.6363 11.6244 10.5757 11.4739 10.464L3.75964 4.73676C3.66901 4.67143 3.59288 4.58955 3.53568 4.49589C3.47848 4.40223 3.44135 4.29865 3.42646 4.19117C3.41156 4.08369 3.41918 3.97446 3.44889 3.86982C3.4786 3.76518 3.5298 3.66722 3.59952 3.58163C3.66923 3.49604 3.75607 3.42454 3.85499 3.37126C3.95391 3.31799 4.06293 3.28401 4.17572 3.2713C4.28852 3.25859 4.40283 3.26741 4.51203 3.29724C4.62122 3.32707 4.72311 3.37731 4.81179 3.44506L12 8.78165L19.1882 3.44506C19.368 3.31549 19.5939 3.25866 19.8172 3.28686C20.0405 3.31507 20.2432 3.42603 20.3814 3.59577C20.5197 3.7655 20.5824 3.98036 20.556 4.19388C20.5296 4.4074 20.4162 4.60242 20.2404 4.73676Z" fill="#006EBE"/>
</svg>
