<svg width="16" height="17" viewBox="0 0 16 17" fill="none" xmlns="http://www.w3.org/2000/svg">
<path fill-rule="evenodd" clip-rule="evenodd" d="M2.66669 8.83496L9.33335 2.1683L11.8334 4.6683L5.16669 11.335H2.66669V8.83496ZM4.00002 10.0016H4.61335L9.94669 4.6683L9.33335 4.05496L4.00002 9.3883V10.0016ZM13.951 2.47938C13.9175 2.56003 13.8685 2.63329 13.8067 2.69496L12.5 4.00163L10 1.50163L11.3067 0.194963C11.3684 0.13316 11.4416 0.0841286 11.5223 0.0506743C11.6029 0.01722 11.6894 0 11.7767 0C11.864 0 11.9505 0.01722 12.0311 0.0506743C12.1118 0.0841286 12.185 0.13316 12.2467 0.194963L13.8067 1.75496C13.8685 1.81664 13.9175 1.8899 13.951 1.97055C13.9844 2.0512 14.0016 2.13765 14.0016 2.22496C14.0016 2.31227 13.9844 2.39873 13.951 2.47938ZM16 13.335H0V16.0016H16V13.335Z" fill="#656565"/>
</svg>
