<svg width="32" height="32" viewBox="0 0 32 32" fill="none" xmlns="http://www.w3.org/2000/svg">
<path fill-rule="evenodd" clip-rule="evenodd" d="M1 16C1 7.71573 7.71573 0.999998 16 0.999999C24.2843 0.999999 31 7.71573 31 16C31 24.2843 24.2843 31 16 31C7.71573 31 1 24.2843 1 16ZM0 16C2.17128e-06 7.16344 7.16345 -2.17128e-06 16 0C24.8366 0 32 7.16344 32 16C32 24.8366 24.8366 32 16 32C7.16344 32 0 24.8366 0 16ZM14.7 18.6C14.4791 18.7657 14.4343 19.0791 14.6 19.3C14.7657 19.5209 15.0791 19.5657 15.3 19.4L19.3 16.4C19.4259 16.3056 19.5 16.1574 19.5 16C19.5 15.8426 19.4259 15.6944 19.3 15.6L15.3 12.6C15.0791 12.4343 14.7657 12.4791 14.6 12.7C14.4343 12.9209 14.4791 13.2343 14.7 13.4L18.1667 16L14.7 18.6Z" fill="#1D1D1D"/>
</svg>
