<svg width="32" height="32" viewBox="0 0 32 32" fill="none" xmlns="http://www.w3.org/2000/svg">
<path fill-rule="evenodd" clip-rule="evenodd" d="M31 16C31 24.2843 24.2843 31 16 31C7.71573 31 1 24.2843 1 16C1 7.71573 7.71573 1 16 1C24.2843 1 31 7.71573 31 16ZM32 16C32 24.8366 24.8366 32 16 32C7.16344 32 0 24.8366 0 16C0 7.16344 7.16344 0 16 0C24.8366 0 32 7.16344 32 16ZM17.3 13.4C17.5209 13.2343 17.5657 12.9209 17.4 12.7C17.2343 12.4791 16.9209 12.4343 16.7 12.6L12.7 15.6C12.5741 15.6944 12.5 15.8426 12.5 16C12.5 16.1574 12.5741 16.3056 12.7 16.4L16.7 19.4C16.9209 19.5657 17.2343 19.5209 17.4 19.3C17.5657 19.0791 17.5209 18.7657 17.3 18.6L13.8333 16L17.3 13.4Z" fill="#1D1D1D"/>
</svg>
