<svg width="48" height="48" viewBox="0 0 48 48" fill="none" xmlns="http://www.w3.org/2000/svg">
<rect width="48" height="48" rx="24" fill="black"/>
<path fill-rule="evenodd" clip-rule="evenodd" d="M31.8433 20.3076C31.8452 20.2566 31.8461 20.2053 31.8461 20.1538C31.8461 20.102 31.8452 20.0504 31.8433 19.9991L31.8461 19.9999C32.7077 19.5076 33.4359 18.3589 33.6923 17.8461C33.2596 18.2787 32.1617 18.4262 31.4843 18.4556C31.4724 18.4292 31.4603 18.4029 31.4479 18.3768C32.213 17.9999 32.8423 16.8706 33.0769 16.3076C31.9966 17.0278 31.0236 17.2212 30.6432 17.2303C29.8904 16.4706 28.8463 16 27.6923 16C25.3982 16 23.5385 17.8597 23.5385 20.1538C23.5385 20.5222 23.5864 20.8793 23.6764 21.2193C19.5723 20.9054 16.3436 18.0319 15.2307 16.6154C14.123 19.5693 15.5897 21.5385 16.4615 22.1539C15.8461 22.277 14.9743 21.7949 14.6154 21.5385C14.6154 24.1231 16.8718 25.2821 18 25.5385C17.6307 25.9077 16.6154 25.6924 16.1538 25.5385C17.1384 27.877 19.2307 28.5641 20.1538 28.6154C19.1434 30.0749 16.1789 30.2799 14.4593 30.1879L14 30.1538C14.0001 30.1538 14.0002 30.1539 14.0002 30.1539C14.0001 30.1539 14.0001 30.1539 14 30.1539L14.0003 30.1539C15.7704 31.2573 17.7723 31.9433 19.8574 31.9962C21.9427 32.049 24.0042 31.5431 25.828 30.5308C27.6519 29.5185 29.1717 28.0367 30.2299 26.2391C31.2881 24.4415 31.8462 22.3936 31.8462 20.3076H31.8433Z" fill="white"/>
</svg>
