<svg width="24" height="24" viewBox="0 0 24 24" fill="none" xmlns="http://www.w3.org/2000/svg">
<path fill-rule="evenodd" clip-rule="evenodd" d="M20.3664 19.142C22.0085 17.2202 23 14.7259 23 12C23 5.92487 18.0751 1 12 1C5.92487 1 1 5.92487 1 12C1 14.6673 1.94936 17.1129 3.52861 19.0173C5.22923 16.1625 8.34676 14.25 11.911 14.25C15.5269 14.25 18.683 16.2183 20.3664 19.142ZM3.02974 19.971C3.02972 19.9711 3.0297 19.9711 3.02968 19.9712C5.22772 22.4429 8.43193 24 11.9998 24C11.9999 24 11.9999 24 12 24C18.6274 24 24 18.6274 24 12C24 5.37258 18.6274 0 12 0C5.37258 0 0 5.37258 0 12C0 15.0595 1.14495 17.8515 3.02974 19.971ZM17.25 9C17.25 11.8995 14.8995 14.25 12 14.25C9.1005 14.25 6.75 11.8995 6.75 9C6.75 6.1005 9.1005 3.75 12 3.75C14.8995 3.75 17.25 6.1005 17.25 9Z" fill="white"/>
</svg>
