<svg width="180" height="30" viewBox="0 0 180 30" fill="none" xmlns="http://www.w3.org/2000/svg">
<path d="M2 13C0.89543 13 0 13.8954 0 15C0 16.1046 0.89543 17 2 17V13ZM179.414 16.4142C180.195 15.6332 180.195 14.3668 179.414 13.5858L166.686 0.857864C165.905 0.0768156 164.639 0.0768156 163.858 0.857864C163.077 1.63891 163.077 2.90524 163.858 3.68629L175.172 15L163.858 26.3137C163.077 27.0948 163.077 28.3611 163.858 29.1421C164.639 29.9232 165.905 29.9232 166.686 29.1421L179.414 16.4142ZM2 17H178V13H2V17Z" fill="#929292"/>
</svg>
