<svg width="24" height="24" viewBox="0 0 24 24" fill="none" xmlns="http://www.w3.org/2000/svg">
<path d="M12 0C5.37258 0 0 5.37258 0 12C0 18.6274 5.37258 24 12 24C18.6274 24 24 18.6274 24 12C24 5.37258 18.6274 0 12 0ZM7.6875 4.7666C7.93474 4.75202 8.15822 4.8998 8.32764 5.1621L9.96826 8.27342C10.141 8.6421 10.0428 9.03686 9.78516 9.30028L9.0337 10.0517C8.98732 10.1153 8.9568 10.1869 8.95606 10.2656C9.24424 11.3811 10.1184 12.4101 10.8897 13.1177C11.6609 13.8253 12.4899 14.7833 13.5659 15.0102C13.6989 15.0473 13.8619 15.0606 13.957 14.9722L14.8301 14.083C15.1314 13.8546 15.5674 13.7439 15.8892 13.9307H15.9038L18.8642 15.6782C19.2988 15.9506 19.3438 16.4771 19.0327 16.7974L16.9937 18.8203C16.6925 19.1291 16.2925 19.2329 15.9038 19.2334C14.1849 19.1819 12.5607 18.3382 11.2266 17.4712C9.0368 15.8781 7.02814 13.9023 5.7671 11.5151C5.28346 10.5141 4.71532 9.23694 4.76954 8.11966C4.77438 7.69934 4.8881 7.28756 5.1841 7.01664L7.22316 4.97758C7.382 4.84242 7.53914 4.77536 7.6875 4.7666Z" fill="#006EBE"/>
</svg>
