<svg width="96" height="31" viewBox="0 0 96 31" fill="none" xmlns="http://www.w3.org/2000/svg">
<path d="M49.6489 9.91034C49.5941 14.2288 53.4975 16.6385 56.4379 18.0713C59.4589 19.5413 60.4736 20.484 60.4616 21.7988C60.4391 23.8106 58.0519 24.6986 55.818 24.7331C51.9206 24.7935 49.6545 23.6809 47.853 22.8394L46.449 29.4089C48.2565 30.2418 51.6034 30.9681 55.074 31C63.2209 31 68.5507 26.9786 68.5796 20.7435C68.6115 12.8304 57.6341 12.3924 57.7091 8.85548C57.735 7.783 58.7584 6.63852 61.0009 6.34752C62.1109 6.20053 65.175 6.08803 68.649 7.68775L70.0125 1.3316C68.1442 0.651365 65.7431 0 62.7536 0C55.0856 0 49.6924 4.07618 49.6489 9.91034ZM83.1143 0.547491C81.6266 0.547491 80.373 1.41523 79.8135 2.74683L68.1761 30.5331H76.317L77.937 26.0561H87.885L88.8248 30.5331H96L89.7386 0.547491H83.1143ZM84.2531 8.64774L86.6025 19.9077H80.1683L84.2531 8.64774ZM39.7785 0.547867L33.3615 30.5328H41.1191L47.5331 0.547117L39.7785 0.547867ZM28.3024 0.547117L20.2279 20.9569L16.9616 3.60332C16.5784 1.6661 15.0649 0.547491 13.3841 0.547491H0.184875L0 1.41823C2.70975 2.00622 5.7885 2.95458 7.65375 3.96931C8.79525 4.58918 9.12075 5.13104 9.49575 6.60402L15.6821 30.5331H23.88L36.4485 0.547491L28.3024 0.547117Z" fill="url(#paint0_linear)"/>
<defs>
<linearGradient id="paint0_linear" x1="44.135" y1="31.6219" x2="45.0323" y2="-0.215595" gradientUnits="userSpaceOnUse">
<stop stop-color="#222357"/>
<stop offset="1" stop-color="#254AA5"/>
</linearGradient>
</defs>
</svg>
